<?xml version="1.0" encoding="UTF-8"?>
<svg width="592.46" height="687.37" viewBox="0 0 612 792" xmlns="http://www.w3.org/2000/svg">
 <defs>
  <clipPath id="b">
   <path d="m75 749.95h485.15v-542.81h-485.15v542.81z"/>
  </clipPath>
  <clipPath id="a">
   <path d="m0 792h612v-792h-612v792z"/>
  </clipPath>
 </defs>
 <g transform="matrix(1.4346 0 0 -1.4346 -126.99 1083)">
  <g clip-path="url(#b)" fill="none" stroke="#fde17c" stroke-width="1.2">
   <g clip-path="url(#a)">
    <g transform="matrix(1.1654 0 0 1.1654 -5.2114 -106.92)">
     <path d="m128.55 499.6h291.76v207.4h-291.76v-207.4z" fill="#65cce2" stroke="none"/>
     <path d="m420.31 287.95h-303.27v211.65h303.27v-211.65z" fill="#a6d35d" stroke="#fff" stroke-width=".9"/>
     <path d="m335.08,399.83c0,4.99-10.39,9.05-23.2,9.05-.19,0-.38-.02-.58-.02 .37.52.58,1.07.58,1.64 0,3.2-6.33,5.8-14.15,5.8-1.8,0-3.52-.15-5.11-.4-7.69,2.27-17.64,3.65-28.52,3.65-22.21,0-40.57-5.71-43.62-13.14-1.51.1-3.05.15-4.63.15-9.98,0-18.79-1.91-24.06-4.82-2.02.41-4.25.64-6.62.64-8.68,0-15.71-3.06-15.71-6.84 0-1.75 1.53-3.35 4.03-4.56-20.32-.78-35.11-3.17-35.11-6 0-3.46 22.81-3.48 50.1-3.48 14.1,0 26.11-2.03 35.11-.83 7.04-5.74 25.32-9.84 46.77-9.84 27.54,0 49.87,6.75 49.87,15.08 0,1.8-1.04,3.52-2.95,5.12 10.2.95 17.8,4.53 17.8,8.8" fill="#88ad4d" stroke="none"/>
     <path d="m384.74,405.63c-1.59,2.13-7.43,3.71-14.4,3.71-8.2,0-14.85-2.18-14.85-4.87s6.65-4.87 14.85-4.87c3.99,0 7.61.52 10.28,1.36 1.02-.55 2.48-.9 4.1-.9 3.07,0 5.56,1.25 5.56,2.78 0,1.54-2.48,2.78-5.54,2.79" fill="#88ad4d" stroke="none"/>
     <path d="m284.74,452.02c-7.35,0-13.67-2.09-16.59-5.1-1.24.07-2.53.1-3.87.1-8.35,0-15.12-1.27-15.12-2.83 0-1.57 6.77-2.84 15.12-2.84 .87,0 1.71.02 2.53.04 1.74-4 9.1-7 17.93-7 10.12,0 18.33,3.95 18.33,8.81 0,4.87-8.21,8.82-18.33,8.82" fill="#88ad4d" stroke="none"/>
     <path d="m122.6 480.32 210.62-7.42 17.17 16.23-42.68 10.21-25.98-1.86-159.13-17.16" fill="#88ad4d" stroke="none"/>
     <path d="m321.15 545.44-57.42 81.05h-146.04v-82.42h6.21v-63.52h164.2v64.89h33.05" fill="#434c9e" stroke="none"/>
     <path d="m119.24 483.55h165.39v61.64h-165.39v-61.64z" fill="#e5b758" stroke="none"/>
     <path d="m119.24 550.27v72.94h143.01l52.36-74.49-195.37 1.55" fill="#6a6fb8" stroke="none"/>
     <path d="m305.51 563.15-8.82 6.41s13.63-1.6 6.42 9.62c0 0-5.62 8.82-13.63 7.22 0 0 16.03 3.21 7.21 11.23 0 0 5.62 11.22-5.61 10.42 0 0 2.4 6.41-4.81 6.41v7.22s18.44 5.61 5.61 8.02c0 0 15.24 17.64-1.6 16.04 0 0-2.41 6.41-11.23-0.81 0 0 2.41 8.02-8.02 4.82 0 0 23.26 16.84 0 16.03 0 0 4.81 14.44-18.44 4.81h-6.41s2.4 8.82-8.02 8.82c0 0 1.6 10.43-8.82 4.01 0 0-4.01 12.03-9.63 1.61h-8.01l3.2 16.84-95.42-4.81 4.01-106.65c4.58-6.45 6.74-6.85 8.62-4.46 3.05-4.68 10.45-17.01 15.44-33.23 0 0 3.21-34.48 1.6-59.34l-25.66 11.23-1.6-12.03s14.43-5.61 25.66-27.26c0 0 4.81-46.51 0-63.35 0 0-4.01-15.23-13.63-18.44l58.53 2.41-17.64 14.43 0.45 50.52 0.18 20.6s25.93 51.34 79.56 61.19c0 0 7.21-8.82 8.01 2.4 0 0 4.01-4.01 6.42 3.21 0 0 8.82-3.21 9.62 6.41l8.82 4.81s6.42-8.82 11.23 4.01c0 0 12.03-1.6 6.41 9.63zm-170.6 27.88c0.65 1.32 1.36 2.74 2.21 4.19 0 0 1.43-1.83 3.55-3.03l1.27-8.2-7.03 7.04zm23.86-33.5-12.01 34.22c0.52 0.26 1.06 0.61 1.59 1.06 0 0 1.6-8.82 8.02-4.81l1.6-7.21s19.27-9.24 20.77 10.07c-0.09-1.67-0.13-4.91 0.47-8.31-4.58-2.4-17.79-10.48-20.44-25.02zm12.83-59.33 1.61 64.95s1.15 9.66 9.13 11.61c1.57-1.99 3.78-3.39 6.9-3.6 0 0-13.63-6.41 8.83-13.63 0 0-3.21-13.63 6.41-14.43 0 0 15.73-7.86 22.89-1.07l-6.85-9.35-48.92-34.48" fill="#434c9e" fill-rule="evenodd" stroke="none"/>
     <path d="m144.21 386.81 41.28 1.59s-14.82 6.88-13.23 16.94v65.09s20.64 45.52 76.21 64.57l-2.64 2.12-19.06-4.76 5.83 7.93h-3.71l-6.88-7.93-53.98-39.17 2.11 71.45s4.77 9.53 11.12 13.23v3.71s-15.88-4.24-21.7-29.11l-2.65 2.64-11.64 36.52-2.12 1.06 1.59-14.29-9.83 12.63-1.28-2.58s12.7-17.46 16.93-42.33l1.59-57.69-28.58 14.29-1.06-8.47s18.53-5.29 27.52-28.58c0 0 9-69.33-5.82-78.86" fill="#c38a59" stroke="none"/>
     <path d="m201.37 559.35s-4.76-16.41 11.64-13.23l-2.11-2.12s4.76-5.29 21.7 0.53c0 0 3.17-10.06 14.29-3.18 0 0-0.01-6.88 5.82-6.35 0 0 7.93-6.88 8.46 3.18 0 0 7.94-5.3 7.41 4.76 0 0 5.3-7.41 9 4.24 0 0 9 1.58 9.53 6.34 0 0 7.41-11.11 10.58 3.18 0 0 17.47-0.53-4.23 11.64l0.45 2.47s11.2-0.45 9.43 4.47c0 0-4.5 10.12-15.14 9.68l-0.99 2.23s17.9 5.1 5.96 10.43l2.48 0.24s4.04 10.93-5.89 6.96c0 0-0.32-1-3.79-1.99 0 0 3.16 2.74 3.66 5.89 0.04 0.27 0.06 0.54 0.06 0.81 0 3.47-2.72 3.49-6.19 2.49l0.98 9.18-5.21-0.25s22.08 6.42 10.17 7.94c0 0 7.64 8.61 6.9 12.58 0 0-2.05 2.8-6.27 1.56 0 0-4.85 6.46-12.29-0.74 0 0 3.21 9.51-10.88 5.75 0 0 23.79 18.08 2.94 16.09 0 0 5.1 13.01-17.98 3.33l-8.77 1.26s5.64 9.08-6.01 8.81c0 0 0.69 9.98-8.44 3.73 0 0-2.78 10.63-8.69 1.54l-9.68 0.74 0.56 17.75-89.54 0.66-3.21-104.46 7.47 1.26s1.27-23.43 11.4 1.9c0 0 4.43-12.03 10.13-4.44 0 0 5.06-10.76 9.5-4.43 0 0 0-14.56 15.19-10.13 0 0 4.44 1.27 4.44 10.13l6.96-4.43s-4.43-10.77 8.87-15.2c0 0-12.37-8.51 9.33-12.8" fill="#8cc724" stroke="none"/>
     <path d="m420.22 718.28h-312.04v-440.87h321.94v440.87h-9.9zm-9.9-19.8v-401.27h-282.34v401.27h282.34" fill="#434c9e" stroke="none"/>
     <path d="m422.89 712.54h-307.14l8.06-8.07h290.05l9.03 8.07" fill="#e4a369" stroke="none"/>
     <path d="m111.87 709.96 10.97-10.97v-408.61l-10.97-1.1401v420.72" fill="#e4a369" stroke="none"/>
     <path d="m414.76 699.24 10.32 10.33v-428.24l-10.32 1.0676v416.84" fill="#e4a369" stroke="none"/>
     <path d="m133.81 293.51h284.03l2.2419-11.5h-308.52l0.39142 11.5" fill="#e4a369" stroke="none"/>
     <path d="m197.5,417.47-9.44,11.64 .54,1.47c8.78.42 4.85,6.54 4.85,6.54l1.83,2.52-2.98,2.51c17.39,10.99-4.13,7.43-4.13,7.43-6.45,8.16-14.06,1.54-14.06,1.54l-.44-50.52c3.69-5.2 11.08-7.2 11.08-7.2 13.14.66 13.27,9.16 13.27,9.16l-1.32-8.81h3.95l-1.23-6.14 12.25-.37c9.51.37.77,4.79.77,4.79 13.96.23-2.6,6.32-2.6,6.32l1.97,7.22 2.23,9.65c0,0-.08.98-.73,1.83 0,0 2.81,6.42-4.76,5.79 0,0-3.65-1.59-4.93-2.87l-.91-.55-5.21-1.95" fill="#434c9e" fill-rule="evenodd" stroke="none"/>
     <path d="m192.99 435.06s1.67-4.06-5.43-3.44l-0.75-1.37s-0.42 1.6-8.47 1.15c-4.12-0.23 4.81 1.37 4.81 1.37l0.68 3.2s-2.29-0.22-2.29 1.84l9.85 3.66 2.28-1.83-1.37-2.06 0.46-1.15s-0.48-0.92-2.67-1.1c0 0 1.41-0.73 2.9-0.27" fill="#efb584" fill-rule="evenodd" stroke="none"/>
     <path d="m174.45 437.58v12.13s8.47 6.63 13.96-2.06c0 0 1.83-3.21 0.46-5.5 0 0-11.67-4.57-14.42-4.57" fill="#f68711" fill-rule="evenodd" stroke="none"/>
     <path d="m189.56 448.33s1.83-3.89 0.45-5.72c0 0 6.87 2.98 7.78 5.95 0 0-3.2 1.15-8.23-0.23" fill="#f68711" fill-rule="evenodd" stroke="none"/>
     <path d="m174.93 429.06s-2.54-21.92 4.1-29.7c0 0 4.8 0.91 8.92 4.34 0 0-9.61 6.87-8.92 16.25 0 0 4.35-11.9 10.07-14.42 0 0 2.74-1.14 4.35 0.46l12.58 9.84-3.2 2.75-10.53-5.03-2.52-2.75 1.15 4.58-4.81 9.61s-3.8 7.99-11.19 4.07" fill="#f6b808" fill-rule="evenodd" stroke="none"/>
     <path d="m181.5 430.39s4.47-0.54 6.76-4.2l7.13-9.33-2.86-1.25-5.55 9.66s-2.28 5.12-5.48 5.12" fill="#f6b808" fill-rule="evenodd" stroke="none"/>
     <path d="m204.66 419.27 2.06-2.06s4.58 2.06 5.95 0.68c0 0 0.69 2.75-2.75 3.67 0 0-2.97 0-5.26-2.29" fill="#efb584" fill-rule="evenodd" stroke="none"/>
     <path d="m180.86 397.75 9.15 5.5s1.83-1.6 5.5 2.06l12.13 10.3s4.12 2.74 5.49 0l-5.72-20.15-8.93-0.22 2.75 8.92 2.06 3.89s-5.04-3.2-6.87-7.09c0 0-6.41-9.61-15.56-3.21" fill="#3398d0" fill-rule="evenodd" stroke="none"/>
     <path d="m202.16 393.64-0.55-3.29 12.25-0.55s-2.19 4.57-11.7 3.84" fill="#fff" fill-rule="evenodd" stroke="none"/>
     <path d="m209.29 397.11-0.55-2.37s3.48-1.47 7.5-0.55c0 0-4.39 2.92-6.95 2.92" fill="#fff" fill-rule="evenodd" stroke="none"/>
     <path d="m190.64,418.51-1.1,4.75-.36-3.11 1.46-1.64" fill="#434c9e" fill-rule="evenodd" stroke="none"/>
     <path d="m201.24 389.8-0.36-1.1s9.69-1.1 13.35-0.18c0 0-11.34 0.55-12.99 1.28" fill="#fff" fill-rule="evenodd" stroke="none"/>
     <path d="m190.68,440.66c0-.34-.27-.62-.61-.62s-.61.28-.61.62c0,.33.27.6.61.6s.61-.27.61-.6" fill="#434c9e" fill-rule="evenodd" stroke="none"/>
     <path d="m277.24,502.29c-.21.65-.66,1.22-1.32,1.68-9.18,10.54-25.9,4.79-25.9,4.79-13.16-5.01-16.58-13.66-17.48-17.95-.44-.93-.56-1.8-.31-2.59 1-3.2 7.74-4.09 16.42-2.59-2.61-1.31-6.01-4.61-4.64-12.88 0,0 2.15-3.86 3.43-5.15l-.42-5.57 1.71-.86 .43-14.15c0,0-7.68-6.47 6.46-1.76 0,0 11.97-7.67 5.54,2.62l.43,15.43-.86,8.15c0,0 12.44,4.72-.85,14.58l-2.46,1.75c12.27,3.89 21.11,10.35 19.82,14.5" fill="#434c9e" stroke="none"/>
     <path d="m249.6,462.12 10.64.2 .2-15.05-4.01-.2-1.41,10.63-1-10.63-3.81.4-.61,14.65" fill="#cea305" stroke="none"/>
     <path d="m248.2 463.32 12.24 0.2-0.8 7.43s-2.41-2.81-3.41-0.2c0 0 0 2.61 1.4 3.21l-2.01 11.03s-2.4-1.2-6.02-0.2c0 0-5.01-2.4-4.61-9.63 0 0 0.6-4.01 2.21-5.42l1.2 8.83v-14.85" fill="#fbc707" stroke="none"/>
     <path d="m259.24 474.56s1 0.2 1.6-2.21c0 0 10.24 6.22-3.81 14.25l-0.2-1 1.8-9.84s1.41-0.2 2.01 2.61c0 0 1.21-2.61-1.4-3.81" fill="#fbc707" stroke="none"/>
     <path d="m258.83 473.76s0.51-0.92 1.21-1.61c0 0-3.81-4.41-2.41 1.01l1.2 0.6" fill="#eaa" stroke="none"/>
     <path d="m257.77 492.63c0-2.98-2.01-5.39-4.49-5.39s-4.49 2.41-4.49 5.39c0 2.97 2.01 5.38 4.49 5.38s4.49-2.41 4.49-5.38" fill="#eaa" stroke="none"/>
     <path d="m250.61 485.6s1.4-1.21 4.61 0.4l-0.4 1.2s-1.6-1.6-3.61-0.4l-0.6-1.2" fill="#fbc707" stroke="none"/>
     <path d="m233.35 489.21s0.4 11.23 15.25 18.06c0 0 17.66 6.62 27.29-4.22 0 0-10.43 4.42-25.48-1.6 0 0-13.85-5.42-17.06-12.24" fill="#9490c9" stroke="none"/>
     <path d="m251.41 508.67s-2.41 5.42-1.81-0.4l1.81 0.4" fill="#434c9e" stroke="none"/>
     <path d="m252.1,493.56c0-.27-.22-.49-.49-.49-.26,0-.48.22-.48.49s.22.48.48.48c.27,0 .49-.21.49-.48" fill="#434c9e" stroke="none"/>
     <path d="m254.87,493.46c0-.27-.22-.48-.49-.48s-.48.21-.48.48 .21.49.48.49 .49-.22.49-.49" fill="#434c9e" stroke="none"/>
     <path d="m252.99,493.96-.2-2.11 .97-.19v-.45l-1.74.06 .97,2.69" fill="#434c9e" stroke="none"/>
     <path d="m251.32 490.31s1.6-0.9 3.14-0.13c0 0-1.35-2.05-3.14 0.13" fill="#434c9e" stroke="none"/>
     <path d="m250.49,494.73 1.6.52-.13-.58-1.47.06" fill="#434c9e" stroke="none"/>
     <path d="m253.95,495.05v-.57l1.66-.07-1.66.64" fill="#434c9e" stroke="none"/>
     <path d="m253.26 499.01s2.7-0.52 3.34-1.61c0 0-0.13 3.02-4.11 3.02 0 0-3.78 0.32-3.2-3.59 0 0 1.54 2.56 3.97 2.18" fill="#cfa43d" stroke="none"/>
     <path d="m248.82,497.96c0,0-.19-1.35 0-1.99 0,0-.71-1.41-.71-2.05 0,0-1.79,2.37.71,4.04" fill="#cfa43d" stroke="none"/>
     <path d="m256.64,498.26c.73-.29 2.29-.72 1.58-3.76l-.94,2.48 .09.36-.73.92" fill="#cfa43d" stroke="none"/>
     <path d="m249.13,492.45c0-.55-.28-1.01-.64-1.01-.35,0-.64.46-.64,1.01 0,.56.29,1.02.64,1.02 .36,0 .64-.46.64-1.02" fill="#eaa" stroke="none"/>
     <path d="m258.78,492.82c0-.56-.29-1.01-.64-1.01-.36,0-.65.45-.65,1.01s.29,1.01.65,1.01c.35,0 .64-.45.64-1.01" fill="#eaa" stroke="none"/>
     <path d="m366.27,447.92c0,.04-.01.08-.01.12 3.16.65 5.58,3.99 5.58,8.04 0,3.9-2.24,7.16-5.23,7.97-.61,1.21-1.86,2.05-3.31,2.05-1.8,0-3.29-1.28-3.64-2.97h-.07c-1.64,0-2.97-1.34-2.97-3 0-.9.4-1.7 1.02-2.25-.89-.2-1.55-.93-1.55-1.8 0-1.02.92-1.85 2.04-1.85 .18,0 .35.03.51.06 .33-1.8 1.15-3.38 2.28-4.52-.06-.25.07.83.03.56-.29.66-.62-.18-.62-.18-17.81-8.91-5.94-24.5-5.94-24.5l2.23-16.33c-8.54-11.13 4.83-1.86 4.83-1.86 12.46-9.35 6.73,1.65 6.73,1.65l3.29,20.25c3.71,15.96-5.2,18.56-5.2,18.56" fill="#434c9e" stroke="none"/>
     <path d="m355.37 425.99 1.2 1.51s8.45-1.81 12.67-0.45l-2.26-17.04s-3.17-1.35-4.68-0.75v11.91l-1.05-12.06s-1.96-0.6-4.07 0.45l-1.81 16.43" fill="#38b97d" stroke="none"/>
     <path d="m356.88 429.16s8.74-1.96 12.06-0.6l0.9 8.74 0.15-7.54s5.13 10.41-4.22 17.34c0 0-2.56-3.32-5.28 1.06 0 0-11-4.23-8.44-15.68 0 0 1.06-2.87 2.11-4.37l2.57 2.11s-3.32 7.23 0.3 10.1c0 0-1.06-7.24 1.05-9.35l-1.2-1.81" fill="#bde380" stroke="none"/>
     <path d="m362 449.21 0.15-1.36s1.96-1.81 3.02-0.15l0.15 1.06s5.12-0.91 5.58 7.99c0 0 0 3.92-3.17 4.22l-1.81-1.81-3.31 2.41s-4.07-2.71-3.32-4.97c0 0-2.56 1.66-1.96-0.61 0 0-0.3-1.65 2.11-1.5 0 0 0.89-4.34 2.56-5.28" fill="#fae1a1" stroke="none"/>
     <path d="m356.12,428.71-1.2-2.11-.61.6 1.81,1.51" fill="#fae1a1" stroke="none"/>
     <path d="m364.4,455.74c0-.28-.24-.51-.55-.51-.3,0-.54.23-.54.51s.24.51.54.51c.31,0 .55-.23.55-.51" fill="#434c9e" stroke="none"/>
     <path d="m367.77,455.74c0-.28-.25-.51-.55-.51s-.55.23-.55.51 .25.51.55.51 .55-.23.55-.51" fill="#434c9e" stroke="none"/>
     <path d="m366.03,456.92c0,0 .2-2.1 1.09-3.53l-2.06-.64-.23.88 1.15.56c0,0 .15,1.68.05,2.73" fill="#434c9e" stroke="none"/>
     <path d="m363.21 451.92s2.56-0.9 4.52 0c0 0-2.11-2.71-4.52 0" fill="#434c9e" stroke="none"/>
     <path d="m362.45,457.2 2.26.45v-.75l-2.26.3" fill="#434c9e" stroke="none"/>
     <path d="m366.68,457.5 .15-.6 1.8.15-1.95.45" fill="#434c9e" stroke="none"/>
     <path d="m258.82,494.89c0,0 3.16,1.18 2.37-1.32 0,0-1.45-2.51-.79-3.56 0,0-2.11.13-.79,2.9 0,0 .79,2.37-.79,1.98" fill="#cfa43d" stroke="none"/>
     <path d="m369.1,463.41c0-.71-.82-1.29-1.83-1.29-1,0-1.82.58-1.82,1.29s.82,1.28 1.82,1.28c1.01,0 1.83-.57 1.83-1.28" fill="#434c9e" stroke="none"/>
     <path d="m327.18 641.83h58.96s12.41 6.2 0 12.41c0 0 18.62 12.41-1.55 13.97 0 0 3.1 12.41-10.86 6.2 0 0 3.1 13.97-9.31 10.86 0 0-18.62 3.11-7.76-12.41 0 0-40.35-4.65-18.62-17.07 0 0-35.69-6.21-10.86-13.96z" fill="none" stroke="#fff" stroke-width=".9"/>
     <path d="m177.34,431.32-.3,1.66-2.27,2.87 .14-5.83 2.43,1.3" fill="#a6d35d" stroke="none"/>
     <path d="m295.06,517.25c0,.47 0,.93.01,1.37" fill="#434c9e" stroke="none"/>
     <path d="m292.64,483.43c0,0 7.28-5.76 5-.75 0,0 6.38-1.37.61,2.42 0,0 3.04,9.41 1.21,13.05 0,0 3.76,9.28-1.36,15.63 0,0-1.52.31-.61,1.22 0,0 3.64,2.58 1.52,6.67 0,0-.61,5.16-6.22,3.19 0,0-3.34-2.73-1.82-6.83 0,0 .91-1.82 2.12-2.73v-1.37c0,0-3.19-1.51-3.03-4.7 0,0-2.28-5.61 1.36-9.41l1.22-16.39" fill="#434c9e" stroke="none"/>
    </g>
   </g>
  </g>
 </g>
</svg>
